<svg width="1849" height="1694" viewBox="0 0 1849 1694" fill="none" xmlns="http://www.w3.org/2000/svg">
<path d="M219.432 649.901H1637.48C1647.97 649.901 1658.04 654.068 1665.45 661.486C1672.87 668.904 1677.04 678.965 1677.04 689.455V1621.59H179.915V689.417C179.925 678.94 184.092 668.895 191.5 661.486C198.909 654.077 208.954 649.911 219.432 649.901V649.901Z" fill="white" stroke="#263238" stroke-linecap="round" stroke-linejoin="round"/>
<path d="M1616.19 725.795H240.646V1503.15H1616.19V725.795Z" stroke="#263238" stroke-linecap="round" stroke-linejoin="round"/>
<path d="M1446.26 1574.81H417.43V1625.48H1446.26V1574.81Z" fill="#263238" stroke="#263238" stroke-linecap="round" stroke-linejoin="round"/>
<path d="M1446.26 1599.2H417.43V1625.48H1446.26V1599.2Z" fill="white" stroke="#263238" stroke-linecap="round" stroke-linejoin="round"/>
<path d="M58.8325 1655.51C58.8325 1655.51 75.7357 1676.19 126.445 1693.06H1737.35C1737.35 1693.06 1774.9 1683.68 1791.81 1657.4L58.8325 1655.51Z" fill="#263238" stroke="#263238" stroke-linecap="round" stroke-linejoin="round"/>
<path d="M1788.18 1618.53H62.5762C58.629 1618.53 55.4292 1621.73 55.4292 1625.67V1650.86C55.4292 1654.8 58.629 1658 62.5762 1658H1788.18C1792.12 1658 1795.32 1654.8 1795.32 1650.86V1625.67C1795.32 1621.73 1792.12 1618.53 1788.18 1618.53Z" fill="white" stroke="#263238" stroke-linecap="round" stroke-linejoin="round"/>
<path d="M941.239 679.283C941.247 676.679 940.481 674.131 939.04 671.962C937.599 669.793 935.546 668.1 933.142 667.098C930.738 666.096 928.091 665.83 925.536 666.334C922.981 666.837 920.632 668.088 918.788 669.927C916.944 671.766 915.687 674.11 915.176 676.664C914.665 679.218 914.924 681.866 915.918 684.272C916.913 686.679 918.6 688.737 920.765 690.184C922.93 691.632 925.476 692.405 928.08 692.405C931.563 692.405 934.905 691.024 937.372 688.564C939.839 686.104 941.229 682.767 941.239 679.283V679.283Z" fill="white" stroke="#263238" stroke-linecap="round" stroke-linejoin="round"/>
<path d="M6.68597 1693.06H1848.26" stroke="#263238" stroke-linecap="round" stroke-linejoin="round"/>
<path d="M1047.42 871.684C1052 867.115 1055.39 861.49 1057.28 855.305C1059.17 849.119 1059.51 842.563 1058.28 836.214L1033.51 860.945C1032.09 862.331 1030.19 863.107 1028.21 863.107C1026.23 863.107 1024.33 862.331 1022.92 860.945L1002.35 840.374C1000.96 838.96 1000.19 837.059 1000.19 835.08C1000.19 833.1 1000.96 831.199 1002.35 829.786L1027.08 805.017C1020.16 803.688 1013.02 804.233 1006.38 806.594C999.743 808.955 993.858 813.046 989.335 818.445C984.811 823.844 981.813 830.354 980.65 837.302C979.488 844.249 980.203 851.38 982.722 857.958L918.815 920.39L912.651 914.226L922.71 904.167C923.183 903.651 923.446 902.977 923.446 902.277C923.446 901.576 923.183 900.902 922.71 900.386L914.92 892.634C914.413 892.144 913.735 891.87 913.03 891.87C912.324 891.87 911.646 892.144 911.139 892.634L907.357 896.415L898.925 888.02L902.177 884.768C902.836 884.067 903.203 883.141 903.203 882.178C903.203 881.215 902.836 880.289 902.177 879.588L832.446 809.857C830.785 808.196 828.813 806.878 826.643 805.979C824.473 805.08 822.147 804.617 819.797 804.617C817.448 804.617 815.122 805.08 812.952 805.979C810.781 806.878 808.809 808.196 807.148 809.857L800.039 816.966C798.378 818.627 797.06 820.599 796.161 822.77C795.262 824.94 794.799 827.266 794.799 829.616C794.799 831.965 795.262 834.291 796.161 836.461C797.06 838.632 798.378 840.604 800.039 842.265L869.77 911.995C870.471 912.654 871.397 913.021 872.36 913.021C873.322 913.021 874.249 912.654 874.95 911.995L878.164 908.743L886.597 917.176L882.816 920.957C882.326 921.465 882.052 922.142 882.052 922.848C882.052 923.553 882.326 924.231 882.816 924.739L890.379 932.528C890.895 933.001 891.569 933.264 892.269 933.264C892.969 933.264 893.644 933.001 894.16 932.528L904.219 922.47L910.269 928.52L857.328 980.213C850.751 977.68 843.615 976.955 836.662 978.113C829.709 979.27 823.193 982.268 817.791 986.795C812.388 991.321 808.295 997.212 805.939 1003.85C803.582 1010.5 803.046 1017.65 804.388 1024.57L829.157 999.839C830.57 998.453 832.471 997.677 834.451 997.677C836.43 997.677 838.331 998.453 839.745 999.839L860.316 1020.41C861.702 1021.82 862.478 1023.72 862.478 1025.7C862.478 1027.68 861.702 1029.58 860.316 1031L835.585 1055.77C842.502 1057.1 849.649 1056.55 856.285 1054.19C862.921 1051.83 868.806 1047.74 873.329 1042.34C877.853 1036.94 880.851 1030.43 882.014 1023.48C883.176 1016.54 882.461 1009.4 879.942 1002.83L932.882 951.171L1005.11 1023.4C1004.08 1026.07 1003.84 1028.99 1004.43 1031.79C1005.02 1034.6 1006.41 1037.17 1008.44 1039.2L1025.87 1056.64L1046.78 1035.72L1029.35 1018.29C1027.32 1016.27 1024.74 1014.88 1021.94 1014.29C1019.13 1013.7 1016.22 1013.93 1013.54 1014.96L941.315 943.079L1005.18 880.722C1012.34 883.478 1020.15 884.09 1027.65 882.485C1035.15 880.881 1042.02 877.128 1047.42 871.684V871.684Z" fill="#2D314E" stroke="#263238" stroke-linecap="round" stroke-linejoin="round"/>
<path d="M824.732 1157.07C824.732 1164.64 827.72 1169.06 834.488 1169.06C841.257 1169.06 844.093 1164.56 844.093 1157.07V1093.51H852.791V1156.62C852.791 1169.21 846.967 1177.64 834.11 1177.64C821.253 1177.64 815.581 1169.21 815.581 1156.62V1093.51H824.732V1157.07Z" fill="#263238"/>
<path d="M870.11 1176.7H861.791V1093.51H873.551L892.799 1153.63V1093.51H901.005V1176.7H891.551L870.11 1109.46V1176.7Z" fill="#263238"/>
<path d="M930.008 1093.51C942.941 1093.51 948.916 1101.37 948.916 1114.19V1156.13C948.916 1168.83 942.979 1176.7 930.008 1176.7H910.458V1093.51H930.008ZM930.008 1168.23C936.664 1168.23 939.878 1164.11 939.878 1156.47V1113.7C939.878 1106.14 936.664 1101.94 929.895 1101.94H919.912V1168.23H930.008Z" fill="#263238"/>
<path d="M987.146 1130.34V1138.66H966.802V1168.23H991.76V1176.7H957.538V1093.51H991.76V1101.9H966.802V1130.3L987.146 1130.34Z" fill="#263238"/>
<path d="M1018.84 1093.51C1031.92 1093.51 1037.36 1100.16 1037.36 1112.41V1119.18C1037.36 1128.33 1034.15 1134.04 1027.04 1136.31C1034.6 1138.54 1037.48 1144.74 1037.48 1153.63V1166.6C1037.22 1170.01 1037.79 1173.44 1039.14 1176.58H1029.76C1028.46 1173.38 1027.93 1169.9 1028.21 1166.45V1153.4C1028.21 1144.03 1023.83 1141.04 1016.11 1141.04H1009.57V1176.58H1000.31V1093.39L1018.84 1093.51ZM1016.34 1132.72C1023.9 1132.72 1028.1 1130.34 1028.1 1121.38V1113.25C1028.1 1105.68 1025.38 1101.9 1018.49 1101.9H1009.46V1132.68L1016.34 1132.72Z" fill="#263238"/>
<path d="M707.317 1283.41V1290.97H698.696V1283C698.696 1275.43 695.708 1271.01 688.939 1271.01C682.171 1271.01 679.183 1275.51 679.183 1283V1326.9C679.183 1334.46 682.284 1338.89 688.939 1338.89C695.595 1338.89 698.696 1334.39 698.696 1326.9V1316.08H707.469V1326.41C707.469 1339 701.532 1347.32 688.561 1347.32C675.591 1347.32 669.919 1339 669.919 1326.41V1283.41C669.919 1270.82 675.856 1262.5 688.561 1262.5C701.267 1262.5 707.317 1270.82 707.317 1283.41Z" fill="#263238"/>
<path d="M715.032 1283.41C715.032 1270.71 721.347 1262.5 733.939 1262.5C746.531 1262.5 753.073 1270.71 753.073 1283.41V1326.41C753.073 1339 746.758 1347.32 733.939 1347.32C721.12 1347.32 715.032 1339 715.032 1326.41V1283.41ZM724.183 1326.9C724.183 1334.46 727.397 1338.89 734.052 1338.89C740.708 1338.89 743.922 1334.5 743.922 1326.9V1282.92C743.922 1275.36 740.821 1270.93 734.052 1270.93C727.284 1270.93 724.183 1275.43 724.183 1282.92V1326.9Z" fill="#263238"/>
<path d="M770.166 1346.49H761.846V1263.29H773.607L792.854 1323.42V1263.29H801.06V1346.49H791.417L770.166 1279.25V1346.49Z" fill="#263238"/>
<path d="M846.551 1283.41V1285.64H837.74V1282.92C837.74 1275.36 834.904 1271.05 828.249 1271.05C821.594 1271.05 818.757 1275.43 818.757 1282.81C818.757 1301.45 846.665 1303.23 846.665 1326.63C846.665 1339.23 840.614 1347.43 827.757 1347.43C814.9 1347.43 809.115 1339.23 809.115 1326.63V1321.91H817.812V1327.13C817.812 1334.69 820.875 1339 827.531 1339C834.186 1339 837.287 1334.61 837.287 1327.13C837.287 1308.6 809.493 1306.82 809.493 1283.41C809.493 1270.55 815.43 1262.61 827.909 1262.61C840.387 1262.61 846.551 1270.71 846.551 1283.41Z" fill="#263238"/>
<path d="M866.858 1346.49V1271.76H851.505V1263.33H891.551V1271.76H876.236V1346.49H866.858Z" fill="#263238"/>
<path d="M916.395 1263.33C929.441 1263.33 934.924 1269.99 934.924 1282.24V1289.05C934.924 1298.16 931.71 1303.87 924.601 1306.14C932.164 1308.41 935.038 1314.57 935.038 1323.49V1336.35C934.757 1339.77 935.329 1343.2 936.702 1346.34H927.324C925.998 1343.14 925.466 1339.68 925.773 1336.24V1323.15C925.773 1313.78 921.387 1310.83 913.635 1310.83H907.131V1346.34H897.866V1263.14L916.395 1263.33ZM914.013 1302.55C921.387 1302.55 925.773 1300.16 925.773 1291.2V1283.22C925.773 1275.66 923.051 1271.88 916.13 1271.88H907.131V1302.66L914.013 1302.55Z" fill="#263238"/>
<path d="M953.454 1326.9C953.454 1334.46 956.403 1338.89 963.172 1338.89C969.941 1338.89 972.815 1334.39 972.815 1326.9V1263.33H981.474V1326.41C981.474 1339 975.651 1347.43 962.832 1347.43C950.012 1347.43 944.302 1339 944.302 1326.41V1263.33H953.454V1326.9Z" fill="#263238"/>
<path d="M1027.34 1283.41V1290.97H1018.53V1283C1018.53 1275.43 1015.58 1271.01 1008.81 1271.01C1002.05 1271.01 999.058 1275.51 999.058 1283V1326.9C999.058 1334.46 1002.16 1338.89 1008.81 1338.89C1015.47 1338.89 1018.53 1334.39 1018.53 1326.9V1316.08H1027.34V1326.41C1027.34 1339 1021.41 1347.32 1008.44 1347.32C995.466 1347.32 989.794 1339 989.794 1326.41V1283.41C989.794 1270.82 995.73 1262.5 1008.44 1262.5C1021.14 1262.5 1027.34 1270.82 1027.34 1283.41Z" fill="#263238"/>
<path d="M1047.88 1346.49V1271.76H1032.75V1263.33H1072.65V1271.76H1057.52V1346.49H1047.88Z" fill="#263238"/>
<path d="M1088.19 1263.33V1346.52H1078.92V1263.33H1088.19Z" fill="#263238"/>
<path d="M1096.92 1283.41C1096.92 1270.71 1103.24 1262.5 1115.83 1262.5C1128.42 1262.5 1134.96 1270.71 1134.96 1283.41V1326.41C1134.96 1339 1128.65 1347.32 1115.83 1347.32C1103.01 1347.32 1096.92 1339 1096.92 1326.41V1283.41ZM1106.07 1326.9C1106.07 1334.46 1109.29 1338.89 1115.94 1338.89C1122.6 1338.89 1125.81 1334.5 1125.81 1326.9V1282.92C1125.81 1275.36 1122.71 1270.93 1115.94 1270.93C1109.17 1270.93 1106.07 1275.43 1106.07 1282.92V1326.9Z" fill="#263238"/>
<path d="M1152.06 1346.49H1143.74V1263.29H1155.5L1174.75 1323.42V1263.29H1182.95V1346.49H1173.31L1152.06 1279.25V1346.49Z" fill="#263238"/>
<path d="M1221.45 1198.78H618.226V1234.74H1221.45V1198.78Z" fill="url(#paint0_linear_1182_70)"/>
<path d="M854.152 1198.78H813.993L793.384 1234.71H833.543L854.152 1198.78Z" fill="#263238"/>
<path d="M1221.45 1234.71V1202.26L1202.84 1234.71H1221.45Z" fill="#263238"/>
<path d="M936.021 1198.78H895.862L875.29 1234.71H915.45L936.021 1198.78Z" fill="#263238"/>
<path d="M772.245 1198.78H732.086L711.477 1234.71H751.674L772.245 1198.78Z" fill="#263238"/>
<path d="M629.608 1234.71H669.767L690.376 1198.78H650.179L629.608 1234.71Z" fill="#263238"/>
<path d="M1181.7 1198.78H1141.54L1120.97 1234.71H1161.13L1181.7 1198.78Z" fill="#263238"/>
<path d="M1017.93 1198.78H977.768L957.159 1234.71H997.357L1017.93 1198.78Z" fill="#263238"/>
<path d="M1099.83 1198.78H1059.64L1039.07 1234.71H1079.23L1099.83 1198.78Z" fill="#263238"/>
<path d="M344.145 1274.9L240.835 1669.58H471.24L367.93 1274.9C367.302 1272.22 365.785 1269.83 363.626 1268.12C361.467 1266.4 358.793 1265.47 356.037 1265.47C353.282 1265.47 350.607 1266.4 348.448 1268.12C346.289 1269.83 344.773 1272.22 344.145 1274.9V1274.9Z" fill="url(#paint1_linear_1182_70)" stroke="#2D314E" stroke-linecap="round" stroke-linejoin="round"/>
<path d="M240.835 1669.58H428.547L334.691 1310.98L240.835 1669.58Z" fill="#263238" stroke="#2D314E" stroke-linecap="round" stroke-linejoin="round"/>
<path d="M494.496 1660.92H207.104C198.75 1660.92 191.978 1667.69 191.978 1676.04V1677.97C191.978 1686.32 198.75 1693.1 207.104 1693.1H494.496C502.85 1693.1 509.622 1686.32 509.622 1677.97V1676.04C509.622 1667.69 502.85 1660.92 494.496 1660.92Z" fill="#31C2A4" stroke="#2D314E" stroke-linecap="round" stroke-linejoin="round"/>
<path d="M396.14 1660.92H207.104C198.75 1660.92 191.978 1667.69 191.978 1676.04V1677.97C191.978 1686.32 198.75 1693.1 207.104 1693.1H396.14C404.494 1693.1 411.266 1686.32 411.266 1677.97V1676.04C411.266 1667.69 404.494 1660.92 396.14 1660.92Z" fill="#263238" stroke="#2D314E" stroke-linecap="round" stroke-linejoin="round"/>
<path d="M282.053 1512.15H430.022L412.136 1443.78H299.939L282.053 1512.15Z" fill="white" stroke="#2D314E" stroke-linecap="round" stroke-linejoin="round"/>
<path d="M282.053 1512.15H387.367L369.481 1443.78H299.939L282.053 1512.15Z" fill="#BABABA" stroke="#2D314E" stroke-linecap="round" stroke-linejoin="round"/>
<path d="M952.37 447.225C965.321 434.274 965.321 413.276 952.37 400.325C939.419 387.373 918.421 387.373 905.47 400.324C892.519 413.276 892.519 434.274 905.47 447.225C918.421 460.176 939.419 460.176 952.37 447.225Z" fill="white" stroke="#263238" stroke-linecap="round" stroke-linejoin="round"/>
<path d="M929.857 155.927V1" stroke="#263238" stroke-width="2" stroke-linecap="round" stroke-linejoin="round"/>
<path d="M929.857 258.254V155.927" stroke="#808080" stroke-width="2" stroke-miterlimit="10"/>
<path d="M878.467 258.254L776.102 435.605H1081.49L979.092 258.254H878.467Z" fill="url(#paint2_linear_1182_70)" stroke="#263238" stroke-width="0.972732" stroke-miterlimit="10"/>
<path d="M888.753 258.254L807.262 435.605H1050.33L968.844 258.254H888.753Z" fill="#263238" stroke="#2D314E" stroke-linecap="round" stroke-linejoin="round"/>
<path d="M648.364 649.901H219.432C208.951 649.901 198.9 654.064 191.489 661.475C184.079 668.886 179.915 678.937 179.915 689.417V1438.45L648.364 649.901Z" fill="#2D314E" stroke="#263238" stroke-miterlimit="10"/>
<path d="M1208.44 649.901H1637.37C1647.85 649.901 1657.9 654.064 1665.31 661.475C1672.72 668.886 1676.89 678.937 1676.89 689.417V1440.76L1208.44 649.901Z" fill="#2D314E" stroke="#263238" stroke-miterlimit="10"/>
<path d="M648.364 649.901L179.915 1438.57" stroke="#263238" stroke-linecap="round" stroke-linejoin="round"/>
<path d="M1208.44 649.901L1676.89 1440.76" stroke="#263238" stroke-linecap="round" stroke-linejoin="round"/>
<path d="M240.646 1337.52V725.795H601.55" stroke="#263238" stroke-linecap="round" stroke-linejoin="round"/>
<path d="M1254.23 725.795H1616.16V1340.62" stroke="#263238" stroke-linecap="round" stroke-linejoin="round"/>
<path d="M1208.44 649.901L1081.49 435.605H776.102L648.364 649.901" fill="white" fill-opacity="0.3"/>
<path d="M1208.44 649.901L1081.49 435.605H776.102L648.364 649.901" stroke="#263238" stroke-miterlimit="10"/>
<defs>
<linearGradient id="paint0_linear_1182_70" x1="919.836" y1="1198.78" x2="1155.5" y2="1391" gradientUnits="userSpaceOnUse">
<stop stop-color="#31C2A6"/>
<stop offset="1" stop-color="#34CD7E"/>
</linearGradient>
<linearGradient id="paint1_linear_1182_70" x1="356.037" y1="1265.47" x2="356" y2="1820" gradientUnits="userSpaceOnUse">
<stop stop-color="#34CD7B"/>
<stop offset="1" stop-color="#2EBCBA"/>
</linearGradient>
<linearGradient id="paint2_linear_1182_70" x1="929" y1="258" x2="929" y2="583" gradientUnits="userSpaceOnUse">
<stop stop-color="#2FCD73"/>
<stop offset="0.421875" stop-color="#2DC896"/>
<stop offset="1" stop-color="#2BC0C5"/>
</linearGradient>
</defs>
</svg>
